<?xml version="1.0" encoding="UTF-8" standalone="no"?>
<!-- Created with Inkscape (http://www.inkscape.org/) -->

<svg
   xmlns:dc="http://purl.org/dc/elements/1.1/"
   xmlns:cc="http://creativecommons.org/ns#"
   xmlns:rdf="http://www.w3.org/1999/02/22-rdf-syntax-ns#"
   xmlns:svg="http://www.w3.org/2000/svg"
   xmlns="http://www.w3.org/2000/svg"
   xmlns:sodipodi="http://sodipodi.sourceforge.net/DTD/sodipodi-0.dtd"
   xmlns:inkscape="http://www.inkscape.org/namespaces/inkscape"
   width="210mm"
   height="297mm"
   viewBox="0 0 744.09448819 1052.3622047"
   id="svg2"
   version="1.1"
   inkscape:version="0.91 r13725"
   sodipodi:docname="coconut_v.svg">
  <defs
     id="defs4" />
  <sodipodi:namedview
     id="base"
     pagecolor="#ffffff"
     bordercolor="#666666"
     borderopacity="1.0"
     inkscape:pageopacity="0.0"
     inkscape:pageshadow="2"
     inkscape:zoom="1.2349952"
     inkscape:cx="92.103422"
     inkscape:cy="755.53842"
     inkscape:document-units="px"
     inkscape:current-layer="layer1"
     showgrid="false"
     inkscape:window-width="1855"
     inkscape:window-height="1056"
     inkscape:window-x="65"
     inkscape:window-y="24"
     inkscape:window-maximized="1" />
  <metadata
     id="metadata7">
    <rdf:RDF>
      <cc:Work
         rdf:about="">
        <dc:format>image/svg+xml</dc:format>
        <dc:type
           rdf:resource="http://purl.org/dc/dcmitype/StillImage" />
        <dc:title />
      </cc:Work>
    </rdf:RDF>
  </metadata>
  <g
     inkscape:label="Layer 1"
     inkscape:groupmode="layer"
     id="layer1">
    <path
       style="fill:#00ff00;fill-rule:evenodd;stroke:#000000;stroke-width:1px;stroke-linecap:butt;stroke-linejoin:miter;stroke-opacity:1"
       d="m 309.1815,285.13405 c -43.53161,-29.74902 -103.33851,-4.36839 -139.77612,25.45645 -2.16891,2.30608 -3.14709,7.88106 -6.15631,7.10486 -11.95441,-3.08353 -23.93676,-7.5089 -25.45209,-3.223 -2.44028,6.902 9.48385,25.64697 7.66426,32.43917 -6.27953,23.44031 -24.76597,19.17393 -28.09182,27.70146 -1.64171,4.20936 13.28937,10.99428 11.86229,15.29104 -8.80364,26.5066 -17.44643,53.11642 -34.891163,75.07367 -11.587318,-22.23107 -3.909114,-52.89838 -2.736076,-80.6298 0.233255,-5.5143 19.642569,-8.48336 19.158769,-13.67608 -0.12505,-4.78446 -19.477674,-12.12764 -19.164336,-17.09141 1.088686,-17.24649 4.986416,-35.09349 12.825346,-50.19334 2.76246,-5.32122 23.82819,10.75143 27.61909,6.25905 3.5766,-4.23844 -10.18085,-29.09551 -5.60308,-32.34272 6.08175,-4.31405 13.08377,-7.64476 21.10362,-9.7036 47.85739,-17.56521 99.64112,-13.04754 149.60999,-13.15737 22.34642,9.54396 -16.84967,-35.33811 -18.46833,-46.49976 -17.20502,-21.85977 -39.40932,-40.77034 -64.28191,-54.16578 -5.26557,-2.83583 5.54368,-22.4286 0.0611,-24.74574 -6.88369,-2.90928 -29.83958,9.57311 -37.26262,9.60854 -16.23212,0.0775 -44.13075,-7.73245 -55.64507,5.76904 0,0 -15.00968,-15.90908 -20.40658,-11.57248 -2.575539,2.06954 -2.788968,9.42678 -3.450115,14.7489 -17.309527,7.78283 -50.357626,-4.46516 -21.418313,-20.84705 3.902684,-3.32532 10.809565,-6.41315 15.367656,-2.91472 14.825122,11.37857 10.419702,-9.92465 15.921502,-14.91861 23.86223,-21.65965 51.30952,-41.158751 81.35035,-25.222289 9.45448,5.008748 30.83445,7.33305 26.80346,17.075259 -5.77596,13.9595 -1.07209,22.50161 2.39639,24.01137 5.86091,2.55114 15.70581,-8.96814 20.17555,-4.61796 22.94414,22.33043 41.76788,49.07585 57.76348,76.65565 13.40266,9.56895 33.78806,40.04441 28.15288,46.80889 14.56714,-50.05627 2.27698,-101.22267 -2.99594,-152.524413 -1.47253,-14.326666 20.06748,-15.824363 17.9538,-22.229768 -1.08048,-3.274362 -8.34196,-7.831168 -28.01811,-16.039679 -6.89208,-12.732668 -60.93207,-42.9122358 -17.62199,-29.952779 28.28724,-4.740633 89.82738,17.17953 68.40886,28.376684 -13.00931,6.800993 -21.76163,13.62165 -19.59103,18.193872 3.80314,8.011022 27.73019,12.471667 24.99565,21.842409 -1.51558,5.193604 -3.88811,10.490714 -7.22121,15.819854 0.84528,44.02885 1.45777,87.44034 -14.475,129.07756 25.54943,4.2584 42.48337,-60.1093 63.67803,-81.09534 10.9124,-13.86952 28.69589,-44.61181 40.34812,-31.7959 36.32327,39.95082 21.43161,-9.87372 32.49391,-14.03561 8.80085,-3.31108 17.62887,-6.42067 26.19995,-9.628336 24.94929,-12.502715 54.88513,-22.978468 64.72474,15.998956 2.03,8.04138 16.92646,-43.002566 36.01954,-8.61373 51.35085,8.61805 22.26621,51.04784 -14.14882,47.58616 -7.61155,0.9303 -10.07276,-63.403786 -38.67907,-1.18496 -2.79974,6.08945 -13.39016,0.24387 -20.02216,0.74595 -16.21808,1.22779 -45.86647,-16.04448 -60.80241,-9.6625 -3.67638,1.57088 6.46987,23.59144 2.9174,25.60055 -4.586,2.59363 -9.06115,5.57315 -13.40579,8.99209 -25.75242,15.71593 -80.43102,38.16552 -81.0026,62.00099 28.73548,-1.70839 57.44632,1.09275 85.19266,7.91552 4.40791,1.0839 -1.12759,27.16818 3.22787,28.45312 4.50881,1.33018 18.90656,-22.13185 23.35093,-20.5905 13.31018,4.61611 26.31267,10.16953 38.89519,16.60195 11.65155,4.95468 23.23721,11.38702 33.85049,19.16268 4.83629,3.54323 -14.82093,27.40597 -10.47424,31.49437 3.4273,3.22363 30.96733,-13.42779 33.99487,-9.87936 13.46976,15.78724 22.56692,34.72733 23.58861,56.27149 -22.57604,20.66794 -51.60936,11.82845 -75.12711,-5.85211 -5.396,-4.0567 20.26771,-32.87042 15.59705,-37.60836 -4.5472,-4.61269 -39.45145,14.86165 -43.04062,10.07021 -2.28508,-3.05053 -4.34896,-6.0906 -6.15718,-9.06076 -7.50645,-8.55925 -16.01293,-15.16555 -25.21173,-20.37376 -7.45163,-4.219 -2.42419,-51.86357 -23.55426,-10.19961 -4.5983,9.06687 -19.73046,-5.45158 -29.93383,-7.36288 -20.36317,-3.81444 -41.2684,-6.10774 -60.58539,-10.72129"
       id="path4193"
       inkscape:connector-curvature="0"
       sodipodi:nodetypes="ccssssscscsssscccsssssccsscsssccssccssscccsscsccssssccssscssscssscsssc" />
    <path
       id="path4150"
       style="fill:#c87137;fill-rule:evenodd;stroke:#000000;stroke-width:1px;stroke-linecap:butt;stroke-linejoin:miter;stroke-opacity:1"
       d="m 287.42428,963.04316 c 46.85162,8.41611 94.68046,5.1885 141.95753,3.82417 8.6667,-46.3648 -20.01726,-92.24499 -3.10642,-138.7296 10.76455,-65.83923 29.82343,-135.20112 4.22488,-200.17611 -13.98942,-55.22923 -17.85958,-112.47178 -13.75225,-169.15424 -3.26875,-47.59972 -17.49012,-93.85471 -29.62536,-139.57425 -6.02831,-13.86099 -14.54825,-26.46614 -20.62183,-40.3049 m -79.07655,684.11488 c 45.72551,-29.74674 50.74854,-88.56105 56.59762,-137.69847 19.46,-91.55746 32.92805,-185.81889 21.16438,-279.29093 3.86892,-46.54184 -3.63899,-92.51675 -19.78621,-135.95198 -10.71719,-42.10423 -20.87084,-84.52601 -36.38706,-125.18511 l 57.7106,-5.5081" />
    <path
       style="opacity:1;fill:#c87137;fill-opacity:0;stroke:none;stroke-width:3;stroke-linejoin:miter;stroke-miterlimit:4;stroke-dasharray:none;stroke-opacity:1"
       d="m 366.71162,527.02873 c 0.62372,-37.22418 -5.68142,-74.85391 -18.67162,-111.43416 -1.57484,-4.43472 -2.96996,-9.3663 -5.70959,-20.18268 -10.07998,-39.79704 -15.52208,-59.52422 -22.20905,-80.50602 -2.31063,-7.25007 -7.06819,-21.05012 -9.35754,-27.143 l -0.86356,-2.29828 28.22187,-2.69275 c 23.79855,-2.27071 28.24178,-2.6284 28.3489,-2.28219 0.30474,0.98498 6.8974,13.6603 10.78538,20.73639 2.33585,4.25125 5.36786,10.0484 6.7378,12.88256 l 2.49079,5.15303 3.93284,14.60024 c 7.51415,27.89549 9.08122,33.84025 11.73477,44.51641 6.8491,27.55627 10.59325,47.43947 12.93804,68.707 0.8683,7.87563 0.98751,13.50198 0.45191,21.32779 -1.20502,17.60671 -1.16579,51.18878 0.078,66.77462 l 0.16563,2.07552 -24.62302,0 -24.62303,0 0.17149,-10.23448 z"
       id="path4177"
       inkscape:connector-curvature="0" />
    <path
       style="opacity:1;fill:#c87137;fill-opacity:0;stroke:none;stroke-width:3;stroke-linejoin:miter;stroke-miterlimit:4;stroke-dasharray:none;stroke-opacity:1"
       d="m 366.71162,527.02873 c 0.62372,-37.22418 -5.68142,-74.85391 -18.67162,-111.43416 -1.57484,-4.43472 -2.96996,-9.3663 -5.70959,-20.18268 -10.07998,-39.79704 -15.52208,-59.52422 -22.20905,-80.50602 -2.31063,-7.25007 -7.06819,-21.05012 -9.35754,-27.143 l -0.86356,-2.29828 28.22187,-2.69275 c 23.79855,-2.27071 28.24178,-2.6284 28.3489,-2.28219 0.30474,0.98498 6.8974,13.6603 10.78538,20.73639 2.33585,4.25125 5.36786,10.0484 6.7378,12.88256 l 2.49079,5.15303 3.93284,14.60024 c 7.51415,27.89549 9.08122,33.84025 11.73477,44.51641 6.8491,27.55627 10.59325,47.43947 12.93804,68.707 0.8683,7.87563 0.98751,13.50198 0.45191,21.32779 -1.20502,17.60671 -1.16579,51.18878 0.078,66.77462 l 0.16563,2.07552 -24.62302,0 -24.62303,0 0.17149,-10.23448 z"
       id="path4179"
       inkscape:connector-curvature="0" />
    <path
       style="opacity:1;fill:#c87137;fill-opacity:0;stroke:none;stroke-width:3;stroke-linejoin:miter;stroke-miterlimit:4;stroke-dasharray:none;stroke-opacity:1"
       d="m 366.71162,527.02873 c 0.62372,-37.22418 -5.68142,-74.85391 -18.67162,-111.43416 -1.57484,-4.43472 -2.96996,-9.3663 -5.70959,-20.18268 -10.07998,-39.79704 -15.52208,-59.52422 -22.20905,-80.50602 -2.31063,-7.25007 -7.06819,-21.05012 -9.35754,-27.143 l -0.86356,-2.29828 28.22187,-2.69275 c 23.79855,-2.27071 28.24178,-2.6284 28.3489,-2.28219 0.30474,0.98498 6.8974,13.6603 10.78538,20.73639 2.33585,4.25125 5.36786,10.0484 6.7378,12.88256 l 2.49079,5.15303 3.93284,14.60024 c 7.51415,27.89549 9.08122,33.84025 11.73477,44.51641 6.8491,27.55627 10.59325,47.43947 12.93804,68.707 0.8683,7.87563 0.98751,13.50198 0.45191,21.32779 -1.20502,17.60671 -1.16579,51.18878 0.078,66.77462 l 0.16563,2.07552 -24.62302,0 -24.62303,0 0.17149,-10.23448 z"
       id="path4181"
       inkscape:connector-curvature="0" />
    <path
       style="opacity:1;fill:#c87137;fill-opacity:0;stroke:none;stroke-width:3;stroke-linejoin:miter;stroke-miterlimit:4;stroke-dasharray:none;stroke-opacity:1"
       d="m 366.71162,527.02873 c 0.62372,-37.22418 -5.68142,-74.85391 -18.67162,-111.43416 -1.57484,-4.43472 -2.96996,-9.3663 -5.70959,-20.18268 -10.07998,-39.79704 -15.52208,-59.52422 -22.20905,-80.50602 -2.31063,-7.25007 -7.06819,-21.05012 -9.35754,-27.143 l -0.86356,-2.29828 28.22187,-2.69275 c 23.79855,-2.27071 28.24178,-2.6284 28.3489,-2.28219 0.30474,0.98498 6.8974,13.6603 10.78538,20.73639 2.33585,4.25125 5.36786,10.0484 6.7378,12.88256 l 2.49079,5.15303 3.93284,14.60024 c 7.51415,27.89549 9.08122,33.84025 11.73477,44.51641 6.8491,27.55627 10.59325,47.43947 12.93804,68.707 0.8683,7.87563 0.98751,13.50198 0.45191,21.32779 -1.20502,17.60671 -1.16579,51.18878 0.078,66.77462 l 0.16563,2.07552 -24.62302,0 -24.62303,0 0.17149,-10.23448 z"
       id="path4185"
       inkscape:connector-curvature="0" />
    <path
       style="opacity:1;fill:#c87137;fill-opacity:0;stroke:none;stroke-width:3;stroke-linejoin:miter;stroke-miterlimit:4;stroke-dasharray:none;stroke-opacity:1"
       d="m 366.71162,527.02873 c 0.62372,-37.22418 -5.68142,-74.85391 -18.67162,-111.43416 -1.57484,-4.43472 -2.96996,-9.3663 -5.70959,-20.18268 -10.07998,-39.79704 -15.52208,-59.52422 -22.20905,-80.50602 -2.31063,-7.25007 -7.06819,-21.05012 -9.35754,-27.143 l -0.86356,-2.29828 28.22187,-2.69275 c 23.79855,-2.27071 28.24178,-2.6284 28.3489,-2.28219 0.30474,0.98498 6.8974,13.6603 10.78538,20.73639 2.33585,4.25125 5.36786,10.0484 6.7378,12.88256 l 2.49079,5.15303 3.93284,14.60024 c 7.51415,27.89549 9.08122,33.84025 11.73477,44.51641 6.8491,27.55627 10.59325,47.43947 12.93804,68.707 0.8683,7.87563 0.98751,13.50198 0.45191,21.32779 -1.20502,17.60671 -1.16579,51.18878 0.078,66.77462 l 0.16563,2.07552 -24.62302,0 -24.62303,0 0.17149,-10.23448 z"
       id="path4187"
       inkscape:connector-curvature="0" />
  </g>
</svg>
