<?xml version="1.0" encoding="UTF-8" standalone="no"?>
<!-- Created with Inkscape (http://www.inkscape.org/) -->

<svg
   xmlns:dc="http://purl.org/dc/elements/1.1/"
   xmlns:cc="http://creativecommons.org/ns#"
   xmlns:rdf="http://www.w3.org/1999/02/22-rdf-syntax-ns#"
   xmlns:svg="http://www.w3.org/2000/svg"
   xmlns="http://www.w3.org/2000/svg"
   xmlns:xlink="http://www.w3.org/1999/xlink"
   xmlns:sodipodi="http://sodipodi.sourceforge.net/DTD/sodipodi-0.dtd"
   xmlns:inkscape="http://www.inkscape.org/namespaces/inkscape"
   width="44.532585mm"
   height="194.82135mm"
   viewBox="0 0 157.79262 690.31187"
   id="svg2"
   version="1.1"
   inkscape:version="0.91 r13725"
   sodipodi:docname="coconut_d.svg">
  <defs
     id="defs4">
    <linearGradient
       inkscape:collect="always"
       id="linearGradient4189">
      <stop
         style="stop-color:#d45500;stop-opacity:1;"
         offset="0"
         id="stop4191" />
      <stop
         style="stop-color:#d45500;stop-opacity:0;"
         offset="1"
         id="stop4193" />
    </linearGradient>
    <linearGradient
       inkscape:collect="always"
       xlink:href="#linearGradient4189"
       id="linearGradient4195"
       x1="285.9245"
       y1="624.09143"
       x2="443.71713"
       y2="624.09143"
       gradientUnits="userSpaceOnUse" />
  </defs>
  <sodipodi:namedview
     id="base"
     pagecolor="#ffffff"
     bordercolor="#666666"
     borderopacity="1.0"
     inkscape:pageopacity="0.0"
     inkscape:pageshadow="2"
     inkscape:zoom="1.2349952"
     inkscape:cx="22.985036"
     inkscape:cy="343.38623"
     inkscape:document-units="px"
     inkscape:current-layer="layer1"
     showgrid="false"
     inkscape:window-width="1855"
     inkscape:window-height="1056"
     inkscape:window-x="65"
     inkscape:window-y="24"
     inkscape:window-maximized="1"
     fit-margin-top="0"
     fit-margin-left="0"
     fit-margin-right="0"
     fit-margin-bottom="0" />
  <metadata
     id="metadata7">
    <rdf:RDF>
      <cc:Work
         rdf:about="">
        <dc:format>image/svg+xml</dc:format>
        <dc:type
           rdf:resource="http://purl.org/dc/dcmitype/StillImage" />
        <dc:title></dc:title>
      </cc:Work>
    </rdf:RDF>
  </metadata>
  <g
     inkscape:label="Layer 1"
     inkscape:groupmode="layer"
     id="layer1"
     transform="translate(-285.92449,-278.93548)">
    <path
       style="color:#000000;font-style:normal;font-variant:normal;font-weight:normal;font-stretch:normal;font-size:medium;line-height:normal;font-family:sans-serif;text-indent:0;text-align:start;text-decoration:none;text-decoration-line:none;text-decoration-style:solid;text-decoration-color:#000000;letter-spacing:normal;word-spacing:normal;text-transform:none;direction:ltr;block-progression:tb;writing-mode:lr-tb;baseline-shift:baseline;text-anchor:start;white-space:normal;clip-rule:nonzero;display:inline;overflow:visible;visibility:visible;opacity:1;isolation:auto;mix-blend-mode:normal;color-interpolation:sRGB;color-interpolation-filters:linearRGB;solid-color:#000000;solid-opacity:1;fill:#e10000;fill-opacity:1;fill-rule:evenodd;stroke:#000000;stroke-width:1px;stroke-linecap:butt;stroke-linejoin:miter;stroke-miterlimit:4;stroke-dasharray:none;stroke-dashoffset:0;stroke-opacity:1;color-rendering:auto;image-rendering:auto;shape-rendering:auto;text-rendering:auto;enable-background:accumulate"
       d="m 366.95898,278.72656 -0.45507,0.19922 -58.19141,5.55469 0.23242,0.61523 c 15.50082,40.61875 25.65272,83.02004 36.3711,125.12891 l 0.006,0.0254 0.01,0.0254 c 16.1247,43.37466 23.6181,89.2748 19.75586,135.73633 l -0.004,0.0527 0.006,0.0508 c 11.75257,93.38381 -1.701,187.58992 -21.15625,279.125 l -0.006,0.0234 -0.002,0.0215 c -2.92532,24.57528 -5.64483,51.53487 -13.32617,76.03125 -7.68135,24.49637 -20.30337,46.51084 -43.04688,61.30664 l 0.27149,0.41797 -0.0879,0.49414 c 46.9318,8.43051 94.79648,5.19598 142.06054,3.83203 l 0.40235,-0.0117 0.0742,-0.39649 c 4.35713,-23.30961 -0.67124,-46.43415 -4.64258,-69.49609 -3.97134,-23.06194 -6.89068,-46.04701 1.51562,-69.1543 l 0.0156,-0.0449 0.008,-0.0449 c 10.75522,-65.78213 29.85469,-135.23101 4.21485,-200.38086 l -0.002,-0.008 C 417.00942,572.6617 413.14235,515.47675 417.24609,458.84375 l 0.004,-0.0352 -0.004,-0.0351 c -3.27402,-47.67652 -17.50878,-93.96123 -29.64062,-139.66797 l -0.01,-0.0371 -0.0137,-0.0352 c -6.05281,-13.91732 -14.57372,-26.52313 -20.62305,-40.30664 z m -0.52343,1.21094 c 6.06478,13.56008 14.33062,25.94495 20.21484,39.46484 12.13408,45.7108 26.33184,91.91431 29.59766,139.41407 -4.10543,56.71459 -0.23296,113.99448 13.76757,169.26757 l 0.008,0.0312 0.0117,0.0293 c 25.51904,64.77318 6.52353,134.01334 -4.24805,199.88086 -8.4783,23.3575 -5.51591,46.5362 -1.54297,69.60742 3.95357,22.95876 8.88109,45.82506 4.70117,68.74805 -46.75222,1.35987 -93.98861,4.45966 -140.24219,-3.65234 22.31745,-14.9413 34.84659,-36.86171 42.45118,-61.11329 7.7192,-24.61709 10.43565,-51.61562 13.35742,-76.16601 4.2e-4,-0.002 0.002,-0.004 0.002,-0.006 19.46095,-91.56327 32.93836,-185.86278 21.17383,-279.40625 3.86349,-46.59111 -3.65353,-92.60964 -19.80859,-136.07813 -10.66067,-41.88294 -20.78518,-84.09831 -36.1836,-124.60546 l 56.74024,-5.41602 z"
       id="path4150"
       inkscape:connector-curvature="0" />
    <path
       style="opacity:1;fill:#c87137;fill-opacity:0;stroke:none;stroke-width:3;stroke-linejoin:miter;stroke-miterlimit:4;stroke-dasharray:none;stroke-opacity:1"
       d="m 366.71162,527.02873 c 0.62372,-37.22418 -5.68142,-74.85391 -18.67162,-111.43416 -1.57484,-4.43472 -2.96996,-9.3663 -5.70959,-20.18268 -10.07998,-39.79704 -15.52208,-59.52422 -22.20905,-80.50602 -2.31063,-7.25007 -7.06819,-21.05012 -9.35754,-27.143 l -0.86356,-2.29828 28.22187,-2.69275 c 23.79855,-2.27071 28.24178,-2.6284 28.3489,-2.28219 0.30474,0.98498 6.8974,13.6603 10.78538,20.73639 2.33585,4.25125 5.36786,10.0484 6.7378,12.88256 l 2.49079,5.15303 3.93284,14.60024 c 7.51415,27.89549 9.08122,33.84025 11.73477,44.51641 6.8491,27.55627 10.59325,47.43947 12.93804,68.707 0.8683,7.87563 0.98751,13.50198 0.45191,21.32779 -1.20502,17.60671 -1.16579,51.18878 0.078,66.77462 l 0.16563,2.07552 -24.62302,0 -24.62303,0 0.17149,-10.23448 z"
       id="path4177"
       inkscape:connector-curvature="0" />
    <path
       style="opacity:1;fill:#c87137;fill-opacity:0;stroke:none;stroke-width:3;stroke-linejoin:miter;stroke-miterlimit:4;stroke-dasharray:none;stroke-opacity:1"
       d="m 366.71162,527.02873 c 0.62372,-37.22418 -5.68142,-74.85391 -18.67162,-111.43416 -1.57484,-4.43472 -2.96996,-9.3663 -5.70959,-20.18268 -10.07998,-39.79704 -15.52208,-59.52422 -22.20905,-80.50602 -2.31063,-7.25007 -7.06819,-21.05012 -9.35754,-27.143 l -0.86356,-2.29828 28.22187,-2.69275 c 23.79855,-2.27071 28.24178,-2.6284 28.3489,-2.28219 0.30474,0.98498 6.8974,13.6603 10.78538,20.73639 2.33585,4.25125 5.36786,10.0484 6.7378,12.88256 l 2.49079,5.15303 3.93284,14.60024 c 7.51415,27.89549 9.08122,33.84025 11.73477,44.51641 6.8491,27.55627 10.59325,47.43947 12.93804,68.707 0.8683,7.87563 0.98751,13.50198 0.45191,21.32779 -1.20502,17.60671 -1.16579,51.18878 0.078,66.77462 l 0.16563,2.07552 -24.62302,0 -24.62303,0 0.17149,-10.23448 z"
       id="path4179"
       inkscape:connector-curvature="0" />
    <path
       style="opacity:1;fill:#c87137;fill-opacity:0;stroke:none;stroke-width:3;stroke-linejoin:miter;stroke-miterlimit:4;stroke-dasharray:none;stroke-opacity:1"
       d="m 366.71162,527.02873 c 0.62372,-37.22418 -5.68142,-74.85391 -18.67162,-111.43416 -1.57484,-4.43472 -2.96996,-9.3663 -5.70959,-20.18268 -10.07998,-39.79704 -15.52208,-59.52422 -22.20905,-80.50602 -2.31063,-7.25007 -7.06819,-21.05012 -9.35754,-27.143 l -0.86356,-2.29828 28.22187,-2.69275 c 23.79855,-2.27071 28.24178,-2.6284 28.3489,-2.28219 0.30474,0.98498 6.8974,13.6603 10.78538,20.73639 2.33585,4.25125 5.36786,10.0484 6.7378,12.88256 l 2.49079,5.15303 3.93284,14.60024 c 7.51415,27.89549 9.08122,33.84025 11.73477,44.51641 6.8491,27.55627 10.59325,47.43947 12.93804,68.707 0.8683,7.87563 0.98751,13.50198 0.45191,21.32779 -1.20502,17.60671 -1.16579,51.18878 0.078,66.77462 l 0.16563,2.07552 -24.62302,0 -24.62303,0 0.17149,-10.23448 z"
       id="path4181"
       inkscape:connector-curvature="0" />
    <path
       style="opacity:1;fill:#c87137;fill-opacity:0;stroke:none;stroke-width:3;stroke-linejoin:miter;stroke-miterlimit:4;stroke-dasharray:none;stroke-opacity:1"
       d="m 366.71162,527.02873 c 0.62372,-37.22418 -5.68142,-74.85391 -18.67162,-111.43416 -1.57484,-4.43472 -2.96996,-9.3663 -5.70959,-20.18268 -10.07998,-39.79704 -15.52208,-59.52422 -22.20905,-80.50602 -2.31063,-7.25007 -7.06819,-21.05012 -9.35754,-27.143 l -0.86356,-2.29828 28.22187,-2.69275 c 23.79855,-2.27071 28.24178,-2.6284 28.3489,-2.28219 0.30474,0.98498 6.8974,13.6603 10.78538,20.73639 2.33585,4.25125 5.36786,10.0484 6.7378,12.88256 l 2.49079,5.15303 3.93284,14.60024 c 7.51415,27.89549 9.08122,33.84025 11.73477,44.51641 6.8491,27.55627 10.59325,47.43947 12.93804,68.707 0.8683,7.87563 0.98751,13.50198 0.45191,21.32779 -1.20502,17.60671 -1.16579,51.18878 0.078,66.77462 l 0.16563,2.07552 -24.62302,0 -24.62303,0 0.17149,-10.23448 z"
       id="path4185"
       inkscape:connector-curvature="0" />
    <path
       style="opacity:1;fill:#c87137;fill-opacity:0;stroke:none;stroke-width:3;stroke-linejoin:miter;stroke-miterlimit:4;stroke-dasharray:none;stroke-opacity:1"
       d="m 366.71162,527.02873 c 0.62372,-37.22418 -5.68142,-74.85391 -18.67162,-111.43416 -1.57484,-4.43472 -2.96996,-9.3663 -5.70959,-20.18268 -10.07998,-39.79704 -15.52208,-59.52422 -22.20905,-80.50602 -2.31063,-7.25007 -7.06819,-21.05012 -9.35754,-27.143 l -0.86356,-2.29828 28.22187,-2.69275 c 23.79855,-2.27071 28.24178,-2.6284 28.3489,-2.28219 0.30474,0.98498 6.8974,13.6603 10.78538,20.73639 2.33585,4.25125 5.36786,10.0484 6.7378,12.88256 l 2.49079,5.15303 3.93284,14.60024 c 7.51415,27.89549 9.08122,33.84025 11.73477,44.51641 6.8491,27.55627 10.59325,47.43947 12.93804,68.707 0.8683,7.87563 0.98751,13.50198 0.45191,21.32779 -1.20502,17.60671 -1.16579,51.18878 0.078,66.77462 l 0.16563,2.07552 -24.62302,0 -24.62303,0 0.17149,-10.23448 z"
       id="path4187"
       inkscape:connector-curvature="0" />
    <path
       style="opacity:1;fill:url(#linearGradient4195);fill-opacity:1;stroke:#000000;stroke-width:4.04859877;stroke-linejoin:miter;stroke-miterlimit:4;stroke-dasharray:none;stroke-opacity:1"
       d="m 338.54527,966.84658 c -10.37123,-0.39716 -27.49402,-1.85062 -37.78083,-3.20701 l -9.8455,-1.29819 5.90593,-4.69323 c 17.33283,-13.77376 30.62098,-36.92179 38.0582,-66.29758 2.93159,-11.57929 5.71779,-27.59548 8.11048,-46.62219 1.17608,-9.35226 4.28695,-27.93533 6.91303,-41.2957 10.4709,-53.27141 16.25074,-94.21096 19.54808,-138.46208 1.63169,-21.89768 1.32878,-76.76798 -0.52522,-95.14207 -1.09876,-10.88918 -1.54892,-22.38718 -1.64849,-42.10543 -0.21862,-43.29264 -4.17384,-68.42214 -16.92047,-107.5042 -2.43044,-7.45189 -7.20502,-24.48012 -10.61019,-37.84049 -8.02174,-31.47381 -16.75601,-61.72807 -23.33365,-80.82441 -3.42322,-9.93834 -4.92306,-15.33404 -4.31295,-15.51585 0.51448,-0.1533 11.68444,-1.24487 24.82214,-2.42569 13.13771,-1.18083 24.97986,-2.32282 26.31589,-2.53777 2.34065,-0.37657 2.56304,-0.13129 6.10346,6.73159 2.02086,3.91732 6.47833,12.42437 9.90551,18.90456 6.0857,11.50704 6.38426,12.34844 12.78575,36.03253 13.70307,50.69841 19.04341,75.72198 22.19653,104.00776 1.01276,9.08525 1.06594,13.52924 0.31487,26.31589 -0.97459,16.59218 -0.47346,56.17581 0.9021,71.25534 3.2625,35.76512 10.06393,74.55369 15.69338,89.49947 10.29193,27.3243 13.13971,64.54165 8.14549,106.4527 -2.53445,21.26889 -13.23679,83.43128 -15.82273,91.9032 -3.68467,12.07147 -4.82702,28.48794 -3.08713,44.36406 0.47394,4.32458 2.49214,17.70095 4.48489,29.72529 4.01785,24.24388 5.16057,37.90621 4.22544,50.51936 -0.34309,4.62765 -0.72419,8.5018 -0.84689,8.60921 -0.1227,0.10742 -13.88711,0.60507 -30.58758,1.10588 -28.08907,0.84233 -43.73852,0.93369 -59.10954,0.34505 z"
       id="path4163"
       inkscape:connector-curvature="0" />
  </g>
</svg>
