<?xml version="1.0" encoding="UTF-8" standalone="no"?>
<!-- Created with Inkscape (http://www.inkscape.org/) -->

<svg
   xmlns:dc="http://purl.org/dc/elements/1.1/"
   xmlns:cc="http://creativecommons.org/ns#"
   xmlns:rdf="http://www.w3.org/1999/02/22-rdf-syntax-ns#"
   xmlns:svg="http://www.w3.org/2000/svg"
   xmlns="http://www.w3.org/2000/svg"
   xmlns:sodipodi="http://sodipodi.sourceforge.net/DTD/sodipodi-0.dtd"
   xmlns:inkscape="http://www.inkscape.org/namespaces/inkscape"
   width="210mm"
   height="297mm"
   viewBox="0 0 744.09448819 1052.3622047"
   id="svg2"
   version="1.1"
   inkscape:version="0.91 r13725"
   sodipodi:docname="coconut.svg">
  <defs
     id="defs4" />
  <sodipodi:namedview
     id="base"
     pagecolor="#ffffff"
     bordercolor="#666666"
     borderopacity="1.0"
     inkscape:pageopacity="0.0"
     inkscape:pageshadow="2"
     inkscape:zoom="0.43663674"
     inkscape:cx="-182.8632"
     inkscape:cy="953.84408"
     inkscape:document-units="px"
     inkscape:current-layer="layer1"
     showgrid="false"
     inkscape:window-width="1855"
     inkscape:window-height="1056"
     inkscape:window-x="65"
     inkscape:window-y="1104"
     inkscape:window-maximized="1" />
  <metadata
     id="metadata7">
    <rdf:RDF>
      <cc:Work
         rdf:about="">
        <dc:format>image/svg+xml</dc:format>
        <dc:type
           rdf:resource="http://purl.org/dc/dcmitype/StillImage" />
      </cc:Work>
    </rdf:RDF>
  </metadata>
  <g
     inkscape:label="Layer 1"
     inkscape:groupmode="layer"
     id="layer1">
    <path
       style="fill:#00ff00;fill-rule:evenodd;stroke:#000000;stroke-width:1px;stroke-linecap:butt;stroke-linejoin:miter;stroke-opacity:1"
       d="M 309.1815,285.13405 C 265.64989,255.38503 205.84299,280.76566 169.40538,310.5905 128.83582,353.72587 130.56514,419.3827 94.340547,464.9777 80.449127,438.32605 94.246764,399.54955 91.329971,368.24266 90.280934,328.10668 103.70739,278.85342 147.54388,267.5998 195.40127,250.03459 247.185,254.55226 297.15387,254.44243 319.50029,263.98639 280.3042,219.10432 278.68554,207.94267 235.10581,152.5726 159.45105,116.1244 89.603118,140.29767 72.293591,148.0805 50.581568,151.21719 79.520881,134.8353 108.87377,109.82485 146.28554,61.064378 188.92151,83.682481 236.02617,108.63735 269.8423,151.60128 296.06039,196.8068 c 13.40266,9.56895 33.78806,40.04441 28.15288,46.80889 18.31517,-62.93544 4.49341,-129.3614 -13.06025,-190.79386 -6.89208,-12.732668 -60.93207,-42.9122358 -17.62199,-29.952779 49.6023,-8.312803 96.33103,36.684812 66.59227,84.232819 0.84528,44.02885 1.45777,87.44034 -14.475,129.07756 25.54943,4.2584 42.48337,-60.1093 63.67803,-81.09534 24.17732,-30.72907 63.78358,-42.26465 99.04198,-55.459846 31.10997,-10.662905 64.88234,-7.600294 95.07624,3.336626 51.35085,8.61805 14.16901,60.76448 -22.24602,57.3028 -38.8449,4.74771 -82.67879,-7.57687 -116.22679,18.82309 -25.75242,15.71593 -80.43102,38.16552 -81.0026,62.00099 52.17923,-3.10218 104.27721,8.66492 150.66665,32.38009 39.77292,16.91293 78.77801,51.04391 80.95973,97.04918 C 579.58583,403.48321 527.14787,361.378 506.86766,328.066 471.80519,288.08594 414.92412,290.71524 367.58245,279.40846"
       id="path4193" />
    <path
       id="path4150"
       style="fill:#c87137;fill-rule:evenodd;stroke:#000000;stroke-width:1px;stroke-linecap:butt;stroke-linejoin:miter;stroke-opacity:1"
       d="m 287.42428,963.04316 c 46.85162,8.41611 94.68046,5.1885 141.95753,3.82417 8.6667,-46.3648 -20.01726,-92.24499 -3.10642,-138.7296 10.76455,-65.83923 29.82343,-135.20112 4.22488,-200.17611 -13.98942,-55.22923 -17.85958,-112.47178 -13.75225,-169.15424 -3.26875,-47.59972 -17.49012,-93.85471 -29.62536,-139.57425 -6.02831,-13.86099 -14.54825,-26.46614 -20.62183,-40.3049 m -79.07655,684.11488 c 45.72551,-29.74674 50.74854,-88.56105 56.59762,-137.69847 19.46,-91.55746 32.92805,-185.81889 21.16438,-279.29093 3.86892,-46.54184 -3.63899,-92.51675 -19.78621,-135.95198 -10.71719,-42.10423 -20.87084,-84.52601 -36.38706,-125.18511 l 57.7106,-5.5081" />
    <path
       style="opacity:1;fill:#c87137;fill-opacity:0;stroke:none;stroke-width:3;stroke-linejoin:miter;stroke-miterlimit:4;stroke-dasharray:none;stroke-opacity:1"
       d="m 366.71162,527.02873 c 0.62372,-37.22418 -5.68142,-74.85391 -18.67162,-111.43416 -1.57484,-4.43472 -2.96996,-9.3663 -5.70959,-20.18268 -10.07998,-39.79704 -15.52208,-59.52422 -22.20905,-80.50602 -2.31063,-7.25007 -7.06819,-21.05012 -9.35754,-27.143 l -0.86356,-2.29828 28.22187,-2.69275 c 23.79855,-2.27071 28.24178,-2.6284 28.3489,-2.28219 0.30474,0.98498 6.8974,13.6603 10.78538,20.73639 2.33585,4.25125 5.36786,10.0484 6.7378,12.88256 l 2.49079,5.15303 3.93284,14.60024 c 7.51415,27.89549 9.08122,33.84025 11.73477,44.51641 6.8491,27.55627 10.59325,47.43947 12.93804,68.707 0.8683,7.87563 0.98751,13.50198 0.45191,21.32779 -1.20502,17.60671 -1.16579,51.18878 0.078,66.77462 l 0.16563,2.07552 -24.62302,0 -24.62303,0 0.17149,-10.23448 z"
       id="path4177"
       inkscape:connector-curvature="0" />
    <path
       style="opacity:1;fill:#c87137;fill-opacity:0;stroke:none;stroke-width:3;stroke-linejoin:miter;stroke-miterlimit:4;stroke-dasharray:none;stroke-opacity:1"
       d="m 366.71162,527.02873 c 0.62372,-37.22418 -5.68142,-74.85391 -18.67162,-111.43416 -1.57484,-4.43472 -2.96996,-9.3663 -5.70959,-20.18268 -10.07998,-39.79704 -15.52208,-59.52422 -22.20905,-80.50602 -2.31063,-7.25007 -7.06819,-21.05012 -9.35754,-27.143 l -0.86356,-2.29828 28.22187,-2.69275 c 23.79855,-2.27071 28.24178,-2.6284 28.3489,-2.28219 0.30474,0.98498 6.8974,13.6603 10.78538,20.73639 2.33585,4.25125 5.36786,10.0484 6.7378,12.88256 l 2.49079,5.15303 3.93284,14.60024 c 7.51415,27.89549 9.08122,33.84025 11.73477,44.51641 6.8491,27.55627 10.59325,47.43947 12.93804,68.707 0.8683,7.87563 0.98751,13.50198 0.45191,21.32779 -1.20502,17.60671 -1.16579,51.18878 0.078,66.77462 l 0.16563,2.07552 -24.62302,0 -24.62303,0 0.17149,-10.23448 z"
       id="path4179"
       inkscape:connector-curvature="0" />
    <path
       style="opacity:1;fill:#c87137;fill-opacity:0;stroke:none;stroke-width:3;stroke-linejoin:miter;stroke-miterlimit:4;stroke-dasharray:none;stroke-opacity:1"
       d="m 366.71162,527.02873 c 0.62372,-37.22418 -5.68142,-74.85391 -18.67162,-111.43416 -1.57484,-4.43472 -2.96996,-9.3663 -5.70959,-20.18268 -10.07998,-39.79704 -15.52208,-59.52422 -22.20905,-80.50602 -2.31063,-7.25007 -7.06819,-21.05012 -9.35754,-27.143 l -0.86356,-2.29828 28.22187,-2.69275 c 23.79855,-2.27071 28.24178,-2.6284 28.3489,-2.28219 0.30474,0.98498 6.8974,13.6603 10.78538,20.73639 2.33585,4.25125 5.36786,10.0484 6.7378,12.88256 l 2.49079,5.15303 3.93284,14.60024 c 7.51415,27.89549 9.08122,33.84025 11.73477,44.51641 6.8491,27.55627 10.59325,47.43947 12.93804,68.707 0.8683,7.87563 0.98751,13.50198 0.45191,21.32779 -1.20502,17.60671 -1.16579,51.18878 0.078,66.77462 l 0.16563,2.07552 -24.62302,0 -24.62303,0 0.17149,-10.23448 z"
       id="path4181"
       inkscape:connector-curvature="0" />
    <path
       style="opacity:1;fill:#c87137;fill-opacity:0;stroke:none;stroke-width:3;stroke-linejoin:miter;stroke-miterlimit:4;stroke-dasharray:none;stroke-opacity:1"
       d="m 366.71162,527.02873 c 0.62372,-37.22418 -5.68142,-74.85391 -18.67162,-111.43416 -1.57484,-4.43472 -2.96996,-9.3663 -5.70959,-20.18268 -10.07998,-39.79704 -15.52208,-59.52422 -22.20905,-80.50602 -2.31063,-7.25007 -7.06819,-21.05012 -9.35754,-27.143 l -0.86356,-2.29828 28.22187,-2.69275 c 23.79855,-2.27071 28.24178,-2.6284 28.3489,-2.28219 0.30474,0.98498 6.8974,13.6603 10.78538,20.73639 2.33585,4.25125 5.36786,10.0484 6.7378,12.88256 l 2.49079,5.15303 3.93284,14.60024 c 7.51415,27.89549 9.08122,33.84025 11.73477,44.51641 6.8491,27.55627 10.59325,47.43947 12.93804,68.707 0.8683,7.87563 0.98751,13.50198 0.45191,21.32779 -1.20502,17.60671 -1.16579,51.18878 0.078,66.77462 l 0.16563,2.07552 -24.62302,0 -24.62303,0 0.17149,-10.23448 z"
       id="path4185"
       inkscape:connector-curvature="0" />
    <path
       style="opacity:1;fill:#c87137;fill-opacity:0;stroke:none;stroke-width:3;stroke-linejoin:miter;stroke-miterlimit:4;stroke-dasharray:none;stroke-opacity:1"
       d="m 366.71162,527.02873 c 0.62372,-37.22418 -5.68142,-74.85391 -18.67162,-111.43416 -1.57484,-4.43472 -2.96996,-9.3663 -5.70959,-20.18268 -10.07998,-39.79704 -15.52208,-59.52422 -22.20905,-80.50602 -2.31063,-7.25007 -7.06819,-21.05012 -9.35754,-27.143 l -0.86356,-2.29828 28.22187,-2.69275 c 23.79855,-2.27071 28.24178,-2.6284 28.3489,-2.28219 0.30474,0.98498 6.8974,13.6603 10.78538,20.73639 2.33585,4.25125 5.36786,10.0484 6.7378,12.88256 l 2.49079,5.15303 3.93284,14.60024 c 7.51415,27.89549 9.08122,33.84025 11.73477,44.51641 6.8491,27.55627 10.59325,47.43947 12.93804,68.707 0.8683,7.87563 0.98751,13.50198 0.45191,21.32779 -1.20502,17.60671 -1.16579,51.18878 0.078,66.77462 l 0.16563,2.07552 -24.62302,0 -24.62303,0 0.17149,-10.23448 z"
       id="path4187"
       inkscape:connector-curvature="0" />
  </g>
</svg>
